<svg width="24" height="24" viewBox="0 0 24 24" fill="none" xmlns="http://www.w3.org/2000/svg">
<path d="M17 13H7C6.73478 13 6.48043 12.8946 6.29289 12.7071C6.10536 12.5196 6 12.2652 6 12C6 11.7348 6.10536 11.4804 6.29289 11.2929C6.48043 11.1054 6.73478 11 7 11H17C17.2652 11 17.5196 11.1054 17.7071 11.2929C17.8946 11.4804 18 11.7348 18 12C18 12.2652 17.8946 12.5196 17.7071 12.7071C17.5196 12.8946 17.2652 13 17 13Z" fill="#4B5768"/>
<path d="M11.9998 17.9999C11.8685 18.0001 11.7384 17.9742 11.6171 17.924C11.4957 17.8737 11.3855 17.7999 11.2928 17.7069L6.29279 12.7069C6.10532 12.5194 6 12.2651 6 11.9999C6 11.7348 6.10532 11.4804 6.29279 11.2929L11.2928 6.29292C11.4814 6.11076 11.734 6.00997 11.9962 6.01224C12.2584 6.01452 12.5092 6.11969 12.6946 6.3051C12.88 6.49051 12.9852 6.74132 12.9875 7.00352C12.9897 7.26571 12.8889 7.51832 12.7068 7.70692L8.41379 11.9999L12.7068 16.2929C12.8466 16.4328 12.9418 16.6109 12.9804 16.8049C13.0189 16.9988 12.9991 17.1999 12.9235 17.3826C12.8478 17.5653 12.7197 17.7214 12.5552 17.8313C12.3908 17.9412 12.1975 17.9999 11.9998 17.9999Z" fill="#4B5768"/>
</svg>
