<svg width="18" height="15" viewBox="0 0 18 15" fill="none" xmlns="http://www.w3.org/2000/svg">
<path d="M14.8337 0.833252H3.16699C2.50395 0.833252 1.86807 1.09664 1.39923 1.56549C0.930384 2.03433 0.666992 2.67021 0.666992 3.33325V11.6666C0.666992 12.3296 0.930384 12.9655 1.39923 13.4344C1.86807 13.9032 2.50395 14.1666 3.16699 14.1666H14.8337C15.4967 14.1666 16.1326 13.9032 16.6014 13.4344C17.0703 12.9655 17.3337 12.3296 17.3337 11.6666V3.33325C17.3337 2.67021 17.0703 2.03433 16.6014 1.56549C16.1326 1.09664 15.4967 0.833252 14.8337 0.833252ZM3.16699 2.49992H14.8337C15.0547 2.49992 15.2666 2.58772 15.4229 2.744C15.5792 2.90028 15.667 3.11224 15.667 3.33325L9.00033 7.39992L2.33366 3.33325C2.33366 3.11224 2.42146 2.90028 2.57774 2.744C2.73402 2.58772 2.94598 2.49992 3.16699 2.49992ZM15.667 11.6666C15.667 11.8876 15.5792 12.0996 15.4229 12.2558C15.2666 12.4121 15.0547 12.4999 14.8337 12.4999H3.16699C2.94598 12.4999 2.73402 12.4121 2.57774 12.2558C2.42146 12.0996 2.33366 11.8876 2.33366 11.6666V5.23325L8.56699 9.04158C8.69367 9.11473 8.83738 9.15323 8.98366 9.15323C9.12994 9.15323 9.27364 9.11473 9.40032 9.04158L15.667 5.23325V11.6666Z" fill="#F3F3F3"/>
</svg>
