<svg width="18" height="15" viewBox="0 0 18 15" fill="none" xmlns="http://www.w3.org/2000/svg">
<path d="M14.8332 0.833252H3.1665C2.50346 0.833252 1.86758 1.09664 1.39874 1.56549C0.929896 2.03433 0.666504 2.67021 0.666504 3.33325V11.6666C0.666504 12.3296 0.929896 12.9655 1.39874 13.4344C1.86758 13.9032 2.50346 14.1666 3.1665 14.1666H14.8332C15.4962 14.1666 16.1321 13.9032 16.6009 13.4344C17.0698 12.9655 17.3332 12.3296 17.3332 11.6666V3.33325C17.3332 2.67021 17.0698 2.03433 16.6009 1.56549C16.1321 1.09664 15.4962 0.833252 14.8332 0.833252ZM3.1665 2.49992H14.8332C15.0542 2.49992 15.2661 2.58772 15.4224 2.744C15.5787 2.90028 15.6665 3.11224 15.6665 3.33325L8.99984 7.39992L2.33317 3.33325C2.33317 3.11224 2.42097 2.90028 2.57725 2.744C2.73353 2.58772 2.94549 2.49992 3.1665 2.49992ZM15.6665 11.6666C15.6665 11.8876 15.5787 12.0996 15.4224 12.2558C15.2661 12.4121 15.0542 12.4999 14.8332 12.4999H3.1665C2.94549 12.4999 2.73353 12.4121 2.57725 12.2558C2.42097 12.0996 2.33317 11.8876 2.33317 11.6666V5.23325L8.5665 9.04158C8.69319 9.11473 8.83689 9.15323 8.98317 9.15323C9.12945 9.15323 9.27315 9.11473 9.39984 9.04158L15.6665 5.23325V11.6666Z" fill="#323A46"/>
</svg>
