<svg width="18" height="19" viewBox="0 0 18 19" fill="none" xmlns="http://www.w3.org/2000/svg">
<path d="M9.3 2.4C9.7 2.2 9.9 1.7 9.8 1.3C9.7 0.9 9.2 0.5 8.7 0.5C3.8 0.6 0 4.6 0 9.5C0 14.5 4 18.5 9 18.5C12.8 18.5 16.1 16.1 17.4 12.6C17.6 12.2 17.4 11.7 17 11.4C16.6 11.1 16.1 11.2 15.8 11.5C14.8 12.4 13.5 12.9 12.1 12.9C9 12.9 6.4 10.4 6.4 7.2C6.4 5.3 7.5 3.4 9.3 2.4ZM12.1 14.9C12.6 14.9 13.1 14.9 13.5 14.8C12.3 15.9 10.7 16.5 9 16.5C5.1 16.5 2 13.4 2 9.5C2 7 3.4 4.7 5.5 3.5C4.8 4.6 4.5 5.9 4.5 7.3C4.4 11.5 7.9 14.9 12.1 14.9Z" fill="#323A46"/>
</svg>
