<svg width="21" height="21" viewBox="0 0 21 21" fill="none" xmlns="http://www.w3.org/2000/svg">
<g clip-path="url(#clip0_67_3986)">
<path d="M8 5.54375L12.6 2.8875C12.6031 2.8875 12.6031 2.88438 12.6063 2.88438C12.425 2.52188 12.1875 2.19375 11.9031 1.90938C11.225 1.23125 10.2875 0.8125 9.25 0.8125C7.18125 0.8125 5.50312 2.4875 5.5 4.55625C5.5 4.55937 5.5 4.55938 5.5 4.5625V9.875L7.99062 11.3187L8 5.54375Z" fill="#DBDBDB"/>
<path d="M2.85834 11.8612L7.45896 14.5175L9.95459 13.0825L4.95803 10.1869L4.95771 4.87498C4.95928 4.87217 4.95646 4.87061 4.95803 4.86811C4.55334 4.84373 4.15053 4.88529 3.76209 4.98967C2.83584 5.23779 2.00428 5.84029 1.48553 6.73904C0.451151 8.53061 1.06271 10.8215 2.85271 11.8584C2.85553 11.8597 2.85553 11.8597 2.85834 11.8612Z" fill="#DBDBDB"/>
<path d="M12.4635 12.2637L7.45752 15.143L2.85721 12.4874C2.85565 12.4846 2.85283 12.4862 2.85127 12.4837C2.62783 12.8218 2.46252 13.1918 2.35846 13.5802C2.11033 14.5065 2.21627 15.5277 2.73502 16.4265C3.7694 18.218 6.05908 18.834 7.85221 17.8021C7.85502 17.8005 7.85502 17.8005 7.85752 17.799L12.4581 15.1427L12.4635 12.2637Z" fill="#DBDBDB"/>
<path d="M12.9998 15.4562L8.3998 18.1124C8.39668 18.1124 8.39668 18.1155 8.39355 18.1155C8.5748 18.478 8.8123 18.8062 9.09668 19.0905C9.7748 19.7687 10.7123 20.1874 11.7498 20.1874C13.8186 20.1874 15.4967 18.5124 15.4998 16.4437C15.4998 16.4405 15.4998 16.4405 15.4998 16.4374V11.1249L13.0092 9.68115L12.9998 15.4562Z" fill="#DBDBDB"/>
<path d="M18.1475 9.1418C18.1446 9.14023 18.1446 9.14023 18.1421 9.13867L13.5415 6.48242L11.0459 7.91742L16.0425 10.813V16.1249C16.0409 16.1277 16.0437 16.1293 16.0421 16.1318C16.4468 16.1562 16.8496 16.1146 17.2381 16.0102C18.1643 15.7621 18.9959 15.1596 19.5146 14.2609C20.549 12.4696 19.9375 10.1787 18.1475 9.1418Z" fill="#DBDBDB"/>
<path d="M18.1421 8.51239C18.1436 8.5152 18.1464 8.51364 18.148 8.51614C18.3714 8.17802 18.5368 7.80833 18.6408 7.41958C18.8889 6.49333 18.783 5.47208 18.2643 4.57333C17.2299 2.78177 14.9402 2.16583 13.1471 3.1977C13.1443 3.19927 13.1443 3.19927 13.1418 3.20083L8.54113 5.85708L8.53613 8.73583L13.5421 5.85645L18.1421 8.51239Z" fill="#DBDBDB"/>
</g>
<defs>
<clipPath id="clip0_67_3986">
<rect width="20" height="20" fill="white" transform="translate(0.5 0.5)"/>
</clipPath>
</defs>
</svg>
