<svg width="20" height="18" viewBox="0 0 20 18" fill="none" xmlns="http://www.w3.org/2000/svg">
<path d="M18.3642 6.59479L3.6181 0.531312C3.04608 0.295716 2.40875 0.271851 1.82067 0.464112C0.456232 0.910096 -0.288336 2.37775 0.157648 3.74225L1.87591 9.00006L0.157648 14.2579C0.0747624 14.5129 0.0316714 14.7791 0.0300235 15.0472C0.0209293 16.4861 1.18011 17.66 2.61907 17.6691C2.96173 17.6685 3.30096 17.6008 3.61761 17.4698L18.3642 11.4053C19.0061 11.1412 19.5158 10.6315 19.7799 9.98962C20.3264 8.66119 19.6926 7.1413 18.3642 6.59479ZM1.10784 3.4317C1.05865 3.27936 1.03253 3.12054 1.03027 2.96051C1.01769 2.07263 1.72729 1.34271 2.61517 1.33014C2.82897 1.33081 3.04052 1.3736 3.23773 1.45612L17.9833 7.52057C18.3792 7.68298 18.6935 7.99725 18.8559 8.39313C18.8767 8.44385 18.8864 8.49591 18.9017 8.54736C18.8384 8.51837 18.7694 8.50006 18.6952 8.50006H2.76415L1.10784 3.4317ZM17.9833 10.4796L3.23724 16.545C2.8858 16.6893 2.49444 16.7039 2.13323 16.5861C1.2929 16.3121 0.833857 15.4088 1.10784 14.5684L2.76415 9.50006H18.6952C18.77 9.50006 18.8392 9.48132 18.9029 9.45197C18.7698 9.90003 18.4494 10.2883 17.9833 10.4796Z" fill="white"/>
</svg>
