<svg width="20" height="21" viewBox="0 0 20 21" fill="none" xmlns="http://www.w3.org/2000/svg">
<path d="M1 9.5C0.802219 9.5 0.60888 9.55865 0.44443 9.66853C0.279981 9.77841 0.151809 9.93459 0.0761209 10.1173C0.000433281 10.3 -0.0193701 10.5011 0.0192152 10.6951C0.0578004 10.8891 0.153041 11.0673 0.292894 11.2071C0.432746 11.347 0.610929 11.4422 0.80491 11.4808C0.998891 11.5194 1.19996 11.4996 1.38268 11.4239C1.56541 11.3482 1.72159 11.22 1.83147 11.0556C1.94135 10.8911 2 10.6978 2 10.5C2 10.2348 1.89464 9.98043 1.70711 9.79289C1.51957 9.60536 1.26522 9.5 1 9.5ZM2.93 16.16C2.78955 16.2996 2.69372 16.4778 2.65465 16.6719C2.61559 16.8661 2.63504 17.0674 2.71055 17.2505C2.78607 17.4336 2.91423 17.5901 3.07881 17.7003C3.24339 17.8104 3.43697 17.8692 3.635 17.8692C3.83304 17.8692 4.02661 17.8104 4.19119 17.7003C4.35577 17.5901 4.48394 17.4336 4.55945 17.2505C4.63496 17.0674 4.65442 16.8661 4.61535 16.6719C4.57628 16.4778 4.48045 16.2996 4.34 16.16C4.15264 15.9738 3.89919 15.8692 3.635 15.8692C3.37082 15.8692 3.11736 15.9738 2.93 16.16ZM4.34 4.84C4.48045 4.70039 4.57628 4.52221 4.61535 4.32807C4.65442 4.13393 4.63496 3.93256 4.55945 3.74948C4.48394 3.56641 4.35577 3.40988 4.19119 3.29974C4.02661 3.18959 3.83304 3.13079 3.635 3.13079C3.43697 3.13079 3.24339 3.18959 3.07881 3.29974C2.91423 3.40988 2.78607 3.56641 2.71055 3.74948C2.63504 3.93256 2.61559 4.13393 2.65465 4.32807C2.69372 4.52221 2.78955 4.70039 2.93 4.84C3.11736 5.02625 3.37082 5.13079 3.635 5.13079C3.89919 5.13079 4.15264 5.02625 4.34 4.84ZM10 2.5C10.1978 2.5 10.3911 2.44135 10.5556 2.33147C10.72 2.22159 10.8482 2.06541 10.9239 1.88268C10.9996 1.69996 11.0194 1.49889 10.9808 1.30491C10.9422 1.11093 10.847 0.932746 10.7071 0.792894C10.5673 0.653041 10.3891 0.5578 10.1951 0.519215C10.0011 0.48063 9.80004 0.500433 9.61732 0.576121C9.43459 0.651809 9.27841 0.779981 9.16853 0.94443C9.05865 1.10888 9 1.30222 9 1.5C9 1.76522 9.10536 2.01957 9.29289 2.20711C9.48043 2.39464 9.73478 2.5 10 2.5ZM15.66 16.16C15.5196 16.2996 15.4237 16.4778 15.3847 16.6719C15.3456 16.8661 15.365 17.0674 15.4406 17.2505C15.5161 17.4336 15.6442 17.5901 15.8088 17.7003C15.9734 17.8104 16.167 17.8692 16.365 17.8692C16.563 17.8692 16.7566 17.8104 16.9212 17.7003C17.0858 17.5901 17.2139 17.4336 17.2894 17.2505C17.365 17.0674 17.3844 16.8661 17.3453 16.6719C17.3063 16.4778 17.2104 16.2996 17.07 16.16C16.8826 15.9738 16.6292 15.8692 16.365 15.8692C16.1008 15.8692 15.8474 15.9738 15.66 16.16ZM19 9.5C18.8022 9.5 18.6089 9.55865 18.4444 9.66853C18.28 9.77841 18.1518 9.93459 18.0761 10.1173C18.0004 10.3 17.9806 10.5011 18.0192 10.6951C18.0578 10.8891 18.153 11.0673 18.2929 11.2071C18.4327 11.347 18.6109 11.4422 18.8049 11.4808C18.9989 11.5194 19.2 11.4996 19.3827 11.4239C19.5654 11.3482 19.7216 11.22 19.8315 11.0556C19.9414 10.8911 20 10.6978 20 10.5C20 10.2348 19.8946 9.98043 19.7071 9.79289C19.5196 9.60536 19.2652 9.5 19 9.5ZM15.66 3.43C15.5196 3.56961 15.4237 3.74779 15.3847 3.94193C15.3456 4.13607 15.365 4.33744 15.4406 4.52052C15.5161 4.70359 15.6442 4.86012 15.8088 4.97026C15.9734 5.08041 16.167 5.13921 16.365 5.13921C16.563 5.13921 16.7566 5.08041 16.9212 4.97026C17.0858 4.86012 17.2139 4.70359 17.2894 4.52052C17.365 4.33744 17.3844 4.13607 17.3453 3.94193C17.3063 3.74779 17.2104 3.56961 17.07 3.43C16.8826 3.24375 16.6292 3.13921 16.365 3.13921C16.1008 3.13921 15.8474 3.24375 15.66 3.43ZM10 18.5C9.80222 18.5 9.60888 18.5586 9.44443 18.6685C9.27998 18.7784 9.15181 18.9346 9.07612 19.1173C9.00043 19.3 8.98063 19.5011 9.01922 19.6951C9.0578 19.8891 9.15304 20.0673 9.29289 20.2071C9.43275 20.347 9.61093 20.4422 9.80491 20.4808C9.99889 20.5194 10.2 20.4996 10.3827 20.4239C10.5654 20.3482 10.7216 20.22 10.8315 20.0556C10.9414 19.8911 11 19.6978 11 19.5C11 19.2348 10.8946 18.9804 10.7071 18.7929C10.5196 18.6054 10.2652 18.5 10 18.5ZM10 4.5C8.81331 4.5 7.65327 4.85189 6.66658 5.51118C5.67988 6.17047 4.91085 7.10754 4.45672 8.2039C4.0026 9.30026 3.88378 10.5067 4.11529 11.6705C4.3468 12.8344 4.91824 13.9035 5.75736 14.7426C6.59648 15.5818 7.66557 16.1532 8.82946 16.3847C9.99335 16.6162 11.1997 16.4974 12.2961 16.0433C13.3925 15.5892 14.3295 14.8201 14.9888 13.8334C15.6481 12.8467 16 11.6867 16 10.5C16 8.9087 15.3679 7.38258 14.2426 6.25736C13.1174 5.13214 11.5913 4.5 10 4.5ZM10 14.5C9.20888 14.5 8.43552 14.2654 7.77772 13.8259C7.11992 13.3864 6.60723 12.7616 6.30448 12.0307C6.00173 11.2998 5.92252 10.4956 6.07686 9.71964C6.2312 8.94372 6.61216 8.23098 7.17157 7.67157C7.73098 7.11216 8.44372 6.7312 9.21964 6.57686C9.99556 6.42252 10.7998 6.50173 11.5307 6.80448C12.2616 7.10723 12.8864 7.61992 13.3259 8.27772C13.7654 8.93552 14 9.70888 14 10.5C14 11.5609 13.5786 12.5783 12.8284 13.3284C12.0783 14.0786 11.0609 14.5 10 14.5Z" fill="#F3F3F3"/>
</svg>
