<?xml version="1.0" standalone="no"?>
<!DOCTYPE svg PUBLIC "-//W3C//DTD SVG 20010904//EN"
 "http://www.w3.org/TR/2001/REC-SVG-20010904/DTD/svg10.dtd">
<svg version="1.0" xmlns="http://www.w3.org/2000/svg"
 width="103.000000pt" height="103.000000pt" viewBox="0 0 103.000000 103.000000"
 preserveAspectRatio="xMidYMid meet">
<metadata>
Created by potrace 1.14, written by Peter Selinger 2001-2017
</metadata>
<g transform="translate(0.000000,103.000000) scale(0.100000,-0.100000)"
fill="#000000" stroke="none">
<path d="M420 1020 c-8 -5 -27 -10 -41 -10 -40 0 -139 -54 -187 -101 -149
-148 -143 -399 13 -560 l44 -46 3 -128 3 -129 28 -7 c35 -9 198 -23 287 -23
l65 -1 3 98 3 97 73 0 c108 0 117 10 119 130 l2 95 48 6 c50 5 69 21 59 48 -3
9 -28 49 -55 90 -35 52 -53 92 -62 136 -8 35 -21 78 -31 97 -47 92 -140 168
-233 191 -28 6 -51 16 -51 22 0 5 -5 3 -10 -5 -6 -10 -10 -11 -10 -2 0 14 -48
16 -70 2z m148 -236 c33 -9 29 -35 -6 -28 -20 4 -33 0 -46 -15 -11 -12 -17
-23 -15 -25 2 -2 32 -12 66 -24 l61 -20 22 23 21 22 -31 13 c-30 12 -41 30
-19 30 21 0 89 -23 89 -30 0 -4 -11 -20 -25 -36 -31 -36 -31 -39 1 -77 24 -29
25 -32 8 -44 -10 -7 -24 -13 -31 -13 -9 0 -13 -18 -13 -65 0 -36 -3 -65 -7
-66 -5 0 -16 -2 -25 -4 -10 -2 -18 3 -18 11 0 8 5 14 10 14 6 0 10 21 10 46 0
45 0 46 -30 39 -57 -13 -19 29 42 46 l41 11 -24 24 -24 24 -62 -21 c-56 -19
-61 -24 -52 -41 6 -10 17 -22 25 -25 17 -6 19 -33 2 -33 -6 0 -21 9 -33 20
l-21 20 2 -68 c1 -37 2 -70 3 -73 1 -3 13 -4 27 -1 39 7 26 -20 -15 -32 -38
-11 -111 8 -111 29 0 11 7 12 32 4 18 -5 33 -9 33 -9 0 0 1 34 1 75 l0 75 -21
-20 c-12 -11 -27 -20 -33 -20 -17 0 -15 27 2 33 8 3 19 15 25 26 10 18 5 21
-52 40 l-62 20 -24 -24 -24 -23 42 -13 c38 -11 40 -14 26 -29 -9 -10 -15 -36
-15 -64 0 -33 -4 -46 -12 -44 -8 3 -13 25 -13 58 0 49 -2 54 -28 63 -33 11
-34 26 -2 62 26 31 25 32 -18 82 -18 21 -18 22 0 31 31 16 73 23 73 12 0 -5
-11 -12 -25 -16 l-25 -6 20 -28 20 -29 63 21 c34 12 64 22 66 24 2 2 -4 13
-14 24 -31 34 -7 39 37 8 14 -10 20 -8 38 15 22 28 30 31 68 21z"/>
<path d="M400 673 l-45 -16 58 -20 c57 -19 60 -19 115 -2 l56 18 -45 18 c-54
22 -81 22 -139 2z"/>
</g>
</svg>
